<mxfile host="app.diagrams.net" modified="2023-06-26T08:18:30.101Z" agent="Mozilla/5.0 (Windows NT 10.0; Win64; x64; rv:102.0) Gecko/20100101 Firefox/102.0" version="21.3.8" etag="vc4c65Ikb8Ma2WdjrLmD" type="github">
  <diagram name="Page-1" id="-wRmLHGXOGMfkKtV5U6C">
    <mxGraphModel>
      <root>
        <mxCell id="0" />
        <mxCell id="1" parent="0" />
      </root>
    </mxGraphModel>
  </diagram>
</mxfile>
